<svg height="56" viewBox="0 0 56 56" width="56" xmlns="http://www.w3.org/2000/svg"><path fill="#e6404e" d="m27.9999 51.9062c13.0547 0 23.9064-10.8515 23.9064-23.9062 0-13.0781-10.8751-23.9062-23.9298-23.9062-13.0782 0-23.8828 10.8281-23.8828 23.9062 0 13.0547 10.8281 23.9062 23.9062 23.9062zm-.0234-30.9843c8.5781 0 16.4062 2.6015 16.4062 8.6953v.8437c0 1.8516-1.0078 2.9766-2.9297 2.7188-1.5-.2344-2.9531-.4688-5.2734-.9141-1.7813-.3047-2.25-1.1484-2.2734-2.7187l-.0235-1.3829c0-.3984-.375-.7265-.7265-.8202-.9844-.2578-2.8594-.4219-5.1563-.4219s-4.2422.2343-5.1563.4219c-.3515.0937-.75.3281-.75.8202v1.3829c-.0234 1.5937-.5156 2.414-2.2734 2.7187-2.414.4688-3.8437.6797-5.2968.9141-1.922.2578-2.9298-.8906-2.9298-2.7188v-.8437c0-6.1172 7.8516-8.6953 16.3829-8.6953z"/></svg>